Hot For Teacher # 3 DVD

Innocent High

Category All Sex, Legal Teen, Schoolgirls

Starring Amy Brooke, Cameron Love, Lexi Diamond, Bella Rey, Stephanie Richards

Starring Lexi Diamond!

After School Activities Is Where She Really Shines!

Studio Innocent High 
Discs 1 
Release Date Feb 08, 2012
 
http://bayimg.com/lamEmAADo
 
http://bayimg.com/LameOaadO
 
http://bayimg.com/mAMeaAaDO

                                  info

General
Complete name                    : C:\Downloads\Hot For Teacher # 3 DVD\DVD\Hot For Teacher # 3 DVD.avi
Format                           : AVI
Format/Info                      : Audio Video Interleave
Format profile                   : OpenDML
File size                        : 1.46 GiB
Duration                         : 2h 35mn
Overall bit rate                 : 1 340 Kbps
Writing application              : MEncoder SVN-r30881(20100311-gcc4.3.3)
Writing library                  : MPlayer

Video
ID                               : 0
Format                           : MPEG-4 Visual
Format profile                   : Advanced Simple@L5
Format settings, BVOP            : 2
Format settings, QPel            : No
Format settings, GMC             : No warppoints
Format settings, Matrix          : Default (H.263)
Codec ID                         : XVID
Codec ID/Hint                    : XviD
Duration                         : 2h 35mn
Bit rate                         : 41.7 Kbps
Width                            : 720 pixels
Height                           : 480 pixels
Display aspect ratio             : 3:2
Frame rate                       : 25.000 fps
Standard                         : NTSC
Color space                      : YUV
Chroma subsampling               : 4:2:0
Bit depth                        : 8 bits
Scan type                        : Progressive
Compression mode                 : Lossy
Bits/(Pixel*Frame)               : 0.005
Stream size                      : 46.3 MiB (3%)
Writing library                  : XviD 1.2.1 (UTC 2008-12-04)

Audio
ID                               : 1
Format                           : MPEG Audio
Codec ID                         : 55
Codec ID/Hint                    : MP3
Duration                         : 2h 35mn
Bit rate                         : 128 Kbps
Channel(s)                       : 2 channels
Sampling rate                    : 44.1 KHz
Compression mode                 : Lossy
Stream size                      : 142 MiB (10%)
Alignment                        : Aligned on interleaves